<?xml version="1.0" standalone="no"?>
<!DOCTYPE svg PUBLIC "-//W3C//DTD SVG 20010904//EN"
 "http://www.w3.org/TR/2001/REC-SVG-20010904/DTD/svg10.dtd">
<svg version="1.0" xmlns="http://www.w3.org/2000/svg"
 width="512.000000pt" height="512.000000pt" viewBox="0 0 512.000000 512.000000"
 preserveAspectRatio="xMidYMid meet">
<metadata>
Created by potrace 1.14, written by Peter Selinger 2001-2017
</metadata>
<g transform="translate(0.000000,512.000000) scale(0.100000,-0.100000)"
fill="#000000" stroke="none">
<path d="M1348 3953 l-478 -3 -360 -358 c-359 -357 -360 -358 -360 -400 0 -23
1 -42 3 -42 1 0 443 -3 982 -6 662 -4 986 -9 1000 -16 11 -6 37 -29 57 -52
l37 -42 1 -790 2 -789 -39 -7 c-21 -5 -422 -5 -890 -2 l-853 7 0 -57 0 -57
958 5 c526 3 1361 7 1855 9 493 2 900 7 903 10 4 3 4 13 1 22 -6 13 -103 15
-892 15 -487 0 -885 3 -885 6 0 3 125 130 278 282 152 153 283 285 290 295 12
16 73 17 1040 17 626 0 1033 4 1042 10 10 6 12 12 4 20 -7 7 -343 11 -1032 12
l-1023 3 1 845 1 844 -113 113 -113 113 -470 -2 c-258 -2 -685 -4 -947 -5z
m1503 -194 c21 -17 39 -36 39 -42 0 -14 -581 -597 -595 -597 -16 0 -85 73 -85
91 0 22 560 579 584 579 10 0 36 -14 57 -31z m48 -1100 l1 -617 -27 -18 c-16
-10 -31 -17 -35 -16 -5 1 -7 -2 -5 -8 2 -9 -472 -480 -484 -480 -3 0 -6 341
-7 758 l-2 757 273 273 272 272 6 -152 c4 -84 7 -430 8 -769z"/>
<path d="M741 2934 c-29 -25 -31 -29 -31 -100 l0 -74 103 0 c68 0 109 4 121
13 20 15 35 73 36 140 l0 47 -99 0 c-92 0 -102 -2 -130 -26z"/>
<path d="M157 2933 c-4 -3 -7 -361 -7 -794 l0 -789 24 -6 c29 -7 72 -2 69 9
-2 4 -3 363 -3 797 l0 790 -38 0 c-21 0 -42 -3 -45 -7z"/>
<path d="M543 2931 c-76 -5 -96 -10 -118 -29 -24 -21 -26 -28 -23 -90 l3 -67
70 -3 c85 -4 144 4 170 24 16 12 19 27 20 91 0 62 -3 78 -15 78 -8 1 -56 -1
-107 -4z"/>
<path d="M1851 2829 c-19 -7 -22 -15 -19 -39 2 -16 0 -27 -4 -24 -5 3 -8 -27
-6 -68 l3 -73 78 -3 79 -3 -4 -57 -3 -57 71 -3 c88 -4 105 11 108 90 l1 53
-69 3 c-39 2 -74 -2 -80 -8 -5 -5 -12 -10 -15 -10 -4 0 -5 48 -3 107 2 75 -1
103 -8 93 -5 -8 -10 -10 -10 -5 0 14 -88 16 -119 4z m92 -56 c3 -10 6 -42 6
-70 l2 -53 -56 4 c-31 2 -59 7 -62 10 -5 5 15 102 24 119 2 4 22 7 43 7 28 0
40 -5 43 -17z m147 -160 c13 3 19 -2 23 -21 7 -36 -2 -52 -28 -52 -12 0 -36
-3 -53 -6 -29 -6 -30 -5 -30 30 0 47 21 70 50 55 11 -6 28 -9 38 -6z"/>
<path d="M1627 2803 c-8 -16 -17 -48 -21 -73 -4 -25 -13 -63 -21 -85 -12 -33
-14 -35 -15 -14 0 25 -1 25 -75 25 l-75 0 0 -86 c0 -76 2 -86 18 -86 10 0 19
6 19 13 0 7 -5 13 -10 13 -5 0 -6 12 -3 26 4 15 3 23 -2 20 -5 -3 -10 14 -10
38 l-1 43 60 2 c38 1 58 -3 54 -9 -3 -5 -2 -10 2 -10 5 0 7 -16 5 -35 -2 -19
-1 -52 3 -73 7 -36 7 -36 17 -12 6 14 14 54 18 90 4 36 13 79 19 95 6 17 15
48 21 70 9 38 11 40 47 39 21 -1 49 -5 62 -9 22 -7 23 -11 18 -65 -3 -32 -7
-63 -10 -67 -3 -5 -34 -6 -69 -3 -60 6 -84 -1 -72 -22 7 -10 135 -10 152 0 13
9 32 103 32 165 l0 37 -75 0 c-71 0 -75 -1 -88 -27z"/>
<path d="M1014 2813 c-39 -8 -54 -36 -60 -116 l-7 -77 105 0 c139 0 146 5 150
115 l3 80 -85 1 c-47 1 -95 0 -106 -3z m69 -20 c-7 -2 -21 -2 -30 0 -10 3 -4
5 12 5 17 0 24 -2 18 -5z"/>
<path d="M1455 2694 c48 -8 115 -9 115 -2 0 5 -30 7 -67 7 -38 -1 -59 -3 -48
-5z"/>
<path d="M519 2682 c-48 -3 -60 -7 -88 -36 -30 -31 -32 -37 -29 -97 l3 -64
113 0 c109 0 114 1 132 25 15 19 20 42 20 98 0 39 -3 73 -7 73 -18 3 -92 4
-144 1z"/>
<path d="M914 2553 c-13 -20 -20 -52 -22 -110 l-4 -83 -83 0 c-68 0 -87 -4
-109 -21 l-26 -20 0 60 0 61 -96 0 c-80 0 -102 -3 -130 -21 -39 -24 -46 -44
-42 -120 l3 -54 105 4 c63 2 116 9 132 17 15 8 29 14 33 14 10 0 5 -79 -6 -86
-11 -6 -105 -13 -192 -14 -60 0 -79 -27 -75 -108 l3 -67 96 0 c76 0 103 4 132
20 36 19 37 21 37 77 l0 58 88 0 c61 1 93 5 106 15 11 8 27 15 37 15 23 0 33
112 13 154 -8 16 -14 30 -14 30 0 1 46 2 101 3 132 2 140 9 147 122 l5 81
-111 0 c-109 0 -110 0 -128 -27z m-97 -209 c-3 -3 -12 -4 -19 -1 -8 3 -5 6 6
6 11 1 17 -2 13 -5z m70 0 c-3 -3 -12 -4 -19 -1 -8 3 -5 6 6 6 11 1 17 -2 13
-5z"/>
<path d="M1310 2411 c-5 -11 -10 -58 -10 -105 l0 -86 70 0 c67 0 70 1 85 30 9
18 15 56 15 105 l0 75 -75 0 c-63 0 -76 -3 -85 -19z m113 -85 c-1 -32 -7 -63
-12 -70 -6 -7 -9 -15 -7 -17 2 -2 -7 -5 -21 -6 -19 -1 -22 1 -12 8 10 6 4 9
-18 9 -35 0 -41 8 -21 28 9 9 9 12 0 12 -8 0 -12 17 -12 44 l0 45 43 4 c62 5
62 5 60 -57z"/>
<path d="M895 2153 c-27 -33 -30 -43 -30 -107 l0 -71 80 -3 c153 -6 188 20
183 139 l-3 74 -100 2 -100 2 -30 -36z"/>
<path d="M1562 2183 c-1 -8 -17 -13 -40 -13 -21 0 -47 -6 -57 -14 -16 -12 -21
-11 -33 1 -28 28 -42 -3 -42 -92 0 -95 0 -95 93 -87 76 6 89 29 84 140 -1 42
-4 71 -5 65z m-28 -82 c-1 -21 -5 -44 -9 -51 -6 -9 -4 -11 5 -5 10 6 11 4 4
-6 -5 -8 -7 -22 -6 -31 3 -16 -3 -17 -45 -12 -70 8 -69 7 -66 60 4 76 8 79 88
83 29 1 30 -1 29 -38z"/>
<path d="M2114 2182 c8 -13 -114 -32 -131 -19 -21 15 -34 -30 -31 -106 l3 -72
74 -3 c41 -2 78 1 83 6 5 5 12 50 15 99 4 68 3 92 -7 98 -8 5 -11 4 -6 -3z
m-23 -84 c0 -24 4 -52 8 -63 12 -30 -12 -41 -77 -35 l-57 5 1 52 c2 76 4 78
68 81 l56 2 1 -42z"/>
<path d="M1580 1985 c0 -16 10 -18 75 -15 l40 1 -6 -73 c-3 -40 -2 -78 3 -85
6 -7 3 -13 -9 -16 -17 -4 -17 -5 0 -6 25 -2 37 38 37 130 l0 79 -70 0 c-56 0
-70 -3 -70 -15z"/>
<path d="M1773 1958 c-4 -24 -8 -72 -8 -108 0 -57 2 -65 20 -67 11 -2 15 0 10
2 -6 3 -10 20 -8 38 2 17 4 59 6 92 l2 60 35 1 c37 1 80 -14 80 -28 0 -4 -5
-8 -11 -8 -8 0 -10 -21 -7 -70 4 -46 2 -71 -6 -74 -6 -2 -4 -5 5 -5 28 -2 40
40 37 124 l-3 80 -72 3 -71 3 -9 -43z"/>
<path d="M1197 1970 c-121 -6 -127 -11 -127 -118 l0 -75 111 5 c140 7 144 10
144 115 0 60 -3 76 -15 77 -8 1 -59 -1 -113 -4z"/>
<path d="M443 1960 c-33 -13 -44 -44 -41 -113 l3 -62 108 1 c98 1 110 3 132
24 22 21 25 32 25 92 l0 68 -102 -1 c-57 0 -113 -4 -125 -9z"/>
<path d="M1556 1953 c-3 -3 -6 -44 -6 -90 0 -77 1 -83 21 -83 18 0 19 2 5 15
-9 9 -14 27 -11 43 12 81 14 111 6 116 -4 3 -11 3 -15 -1z"/>
<path d="M1638 1793 c7 -3 16 -2 19 1 4 3 -2 6 -13 5 -11 0 -14 -3 -6 -6z"/>
<path d="M1965 1705 c-21 -20 -25 -34 -25 -79 0 -66 9 -71 106 -61 74 8 84 19
84 89 0 72 -4 76 -77 76 -55 0 -67 -4 -88 -25z"/>
</g>
</svg>
